<svg width="210mm" height="60mm" fill="none" version="1.1" viewBox="0 0 793.7 226.77" xmlns="http://www.w3.org/2000/svg"><path d="m53.5 26.912c0-3.8242 10.912-3.811 10.842 0v171.09c0 2.3804-10.842 2.5011-10.842 0z" fill="#b3b3b3" style="paint-order:stroke markers fill"/><path d="m96.032 32.608c-12.347-1.7065-20.42 8.5465-23.38 23.102-3.373 16.588 2.9954 38.149 18.118 35.681 35.253-5.7531 72.755-4.0073 110.81-0.43566 9.5536 0.89676 17.047-4.6633 17.682-17.354 0.45499-9.1-4.1832-16.68-14.153-19.128-36.045-8.8522-72.215-16.771-109.07-21.865z" fill="#009200"/><path d="m213.44 73.072c0 6.8963-5.503 13.545-11.217 13.545s-8.9342-7.3545-8.9342-14.251c0-6.8963 4.279-12.134 9.9925-12.134s10.158 5.9433 10.158 12.84z" fill="#005a00" style="paint-order:stroke markers fill"/><g><path d="m79.708 203.23c2.4424-1.8858 6.3982-28.584 24.155-43.567 17.757-14.983-19.7-1.6197-32.649 39.3-1.9277 6.0918 5.8683 6.294 8.4938 4.2669z" fill="#009200"/><path d="m41.013 194.74c-1.8404-1.2099-4.821-18.339-18.2-27.952-13.379-9.6131 14.844-1.0392 24.6 25.214 1.4525 3.9084-4.4217 4.0381-6.4 2.7376z" fill="#009200"/><g fill="#d2f5c7"><path d="m97.926 84.763c-6.5049 0.80909-11.366-11.977-11.089-23.781 0.2841-12.091 7.0928-23.626 13.913-22.555l15.475 2.4308c2.0062 0.31513 2.3424 2.0727-0.2092 4.0453-7.9222 6.1245-11.224 25.543-3.2554 34.975 0.97633 1.1399 1.2697 3.3686-0.82072 3.5068-4.3826 0.3536-8.8556 0.73592-14.013 1.3774z"/><path d="m131.39 82.835c-5.5116 0.0332-9.0163-10.691-8.0954-20.259 0.94484-9.8166 6.3116-18.945 12.026-17.945l11.591 2.0894c1.7767 0.32026 3.8762 1.9314 1.1723 4.853-5.9385 6.4168-8.3729 20.385-2.4315 27.061 1.3119 1.4742 0.94177 4.2225-4.0714 4.2013-4.0214-0.017-6.5401-0.0225-10.191-4e-4z"/><path d="m166.05 83.511c-13.674-0.71385-11.638-34.783 3.3229-32.064 2.2186 0.40318 4.7472 0.86474 6.6557 1.2096 2.7385 0.49476 5.3849 1.7609 2.7426 5.1313-4.0029 5.4037-5.6875 15.039-1.9345 21.195 2.5057 4.1102 0.7274 5.0656-2.9904 4.8906-1.7981-0.0846-5.9341-0.26517-7.7963-0.36239z"/></g></g><path d="m220.26 140.43-20.631 58.945h-6.0124l-16.151-41.615-16.151 41.615h-6.0124l-20.631-58.945h11.553l13.086 41.379 15.444-41.379h5.4229l15.444 41.379 13.086-41.379z" fill="#b3b3b3"/><path d="m247.49 140.43v58.945h-9.6669v-49.867h-9.3133v-9.0775z" fill="#b3b3b3"/><path d="m241.48 112.14q3.4188 0 5.6587 2.4757 2.3578 2.3578 2.3578 5.5408 0 3.0651-2.3578 5.5408-2.2399 2.4757-5.6587 2.4757t-5.7766-2.4757q-2.2399-2.4757-2.2399-5.5408 0-3.183 2.2399-5.5408 2.3578-2.4757 5.7766-2.4757z" fill="#00a9f7"/><path d="m278.03 140.43v9.3132q1.8862-2.3578 4.8335-4.7156 2.9472-2.4757 6.6018-4.1261 3.7725-1.6504 7.7807-1.6504 6.0123 0 10.964 2.7114 4.9513 2.5936 7.8986 8.0165 2.9472 5.305 2.9472 13.439v35.956h-9.6669l-0.11791-35.013q0-7.6628-3.4188-11.671-3.3009-4.0082-10.256-4.0082-4.7156 0-9.4311 3.5367-4.5977 3.4188-8.1344 8.0165v39.139h-9.6669v-58.945z" fill="#b3b3b3"/><path d="m390.73 114.5v84.88h-9.6669v-10.021q-3.0651 4.7156-8.3701 8.2522-5.1871 3.5367-11.907 3.5367-7.5449 0-13.793-3.7725-6.2481-3.8904-10.021-10.728-3.6546-6.8376-3.6546-15.797 0-9.7848 3.6546-16.858 3.7724-7.0734 10.256-10.846 6.4839-3.8904 14.5-3.8904 5.0692 0 10.256 2.4757 5.305 2.3578 9.0774 6.6018v-33.834zm-27.232 34.424q-6.366 0-10.846 3.183-4.4798 3.0651-6.9554 8.0165-2.3578 4.9514-2.3578 10.728 0 5.6587 2.3578 10.492 2.3578 4.7156 6.6018 7.5449 4.3619 2.8293 10.021 2.8293 5.4229 0 9.6669-2.8293t6.7197-7.7807q2.4757-5.0692 2.3578-11.317l-0.11786-11.317q-3.6546-4.5977-7.8986-7.0734-4.1261-2.4757-9.549-2.4757z" fill="#b3b3b3"/><g fill="#00a9f7"><path d="m441.3 140.43v9.0775h-17.212v49.867h-9.6669v-49.867h-9.3133v-9.0775h9.3133v-7.5449q0-6.9555 2.7114-11.317 2.7115-4.4798 6.9555-6.6018 4.244-2.2399 8.6059-2.2399 6.0124 0 9.7848 3.183v8.488q-1.7683-1.1789-4.244-1.8862-2.4757-0.70734-4.9514-0.58945-4.3619 0.11789-6.8376 2.8294-2.3578 2.5936-2.3578 9.1954v6.4839z"/><path d="m463.82 114.5v84.88h-9.6669v-84.88z"/><path d="m510.5 139.25q8.9596 0 15.915 4.244t10.846 11.317q4.0082 7.0734 4.0082 15.444t-4.0082 15.444q-3.8903 6.9555-10.846 11.199-6.9555 4.244-15.915 4.244t-15.915-4.244q-6.9555-4.244-10.964-11.199-3.8903-7.0734-3.8903-15.444t3.8903-15.444q4.0082-7.0734 10.964-11.317 6.9555-4.244 15.915-4.244zm0 9.4311q-6.2481 0-10.964 3.0651-4.7156 2.9472-7.3091 7.8986-2.4757 4.8335-2.4757 10.61 0 5.6587 2.4757 10.61 2.5936 4.8335 7.3091 7.8986 4.7156 2.9472 10.964 2.9472 6.366 0 10.964-2.9472 4.7156-3.0651 7.1913-7.8986 2.5936-4.9514 2.5936-10.61 0-5.7766-2.5936-10.61-2.4757-4.9514-7.1913-7.8986-4.5976-3.0651-10.964-3.0651z"/><path d="m634.52 140.43-20.631 58.945h-6.0123l-16.151-41.615-16.151 41.615h-6.0124l-20.631-58.945h11.553l13.086 41.379 15.444-41.379h5.4229l15.444 41.379 13.086-41.379z"/></g><path d="m653.98 184.99q3.4188 0 5.7766 2.4757 2.4757 2.3578 2.4757 5.7766 0 3.3009-2.4757 5.7766-2.3578 2.4757-5.7766 2.4757t-5.8945-2.4757q-2.3578-2.4757-2.3578-5.7766 0-3.4188 2.3578-5.7766 2.4757-2.4757 5.8945-2.4757z" fill="#009200"/><g fill="#b3b3b3"><path d="m697.12 140.43v58.945h-9.6669v-49.867h-9.3133v-9.0775z"/><path d="m691.11 112.14q3.4188 0 5.6587 2.4757 2.3578 2.3578 2.3578 5.5408 0 3.0651-2.3578 5.5408-2.2399 2.4757-5.6587 2.4757t-5.7766-2.4757q-2.2399-2.4757-2.2399-5.5408 0-3.183 2.2399-5.5408 2.3578-2.4757 5.7766-2.4757z"/><path d="m744.63 139.25q8.9596 0 15.915 4.244 6.9555 4.244 10.846 11.317 4.0082 7.0734 4.0082 15.444t-4.0082 15.444q-3.8903 6.9555-10.846 11.199-6.9554 4.244-15.915 4.244t-15.915-4.244-10.964-11.199q-3.8903-7.0734-3.8903-15.444t3.8903-15.444q4.0082-7.0734 10.964-11.317 6.9555-4.244 15.915-4.244zm0 9.4311q-6.2481 0-10.964 3.0651-4.7156 2.9472-7.3092 7.8986-2.4757 4.8335-2.4757 10.61 0 5.6587 2.4757 10.61 2.5936 4.8335 7.3092 7.8986 4.7156 2.9472 10.964 2.9472 6.366 0 10.964-2.9472 4.7156-3.0651 7.1912-7.8986 2.5936-4.9514 2.5936-10.61 0-5.7766-2.5936-10.61-2.4757-4.9514-7.1912-7.8986-4.5977-3.0651-10.964-3.0651z"/></g></svg>
